HIERARCHY
ROOT hip
{
	OFFSET 0.000000 0.000000 0.000000 
	CHANNELS 6 Xposition Yposition Zposition Xrotation Zrotation Yrotation
	JOINT abdomen
	{
		OFFSET 0.000000 3.402643 0.000000 
		CHANNELS 3 Xrotation Zrotation Yrotation
		JOINT chest
		{
			OFFSET 0.000000 8.438565 -0.680529 
			CHANNELS 3 Xrotation Zrotation Yrotation
			JOINT neck
			{
				OFFSET 0.000000 10.207942 -0.272212 
				CHANNELS 3 Xrotation Zrotation Yrotation
				JOINT head
				{
					OFFSET 0.000000 3.130431 0.000000 
					CHANNELS 3 Xrotation Zrotation Yrotation
					End Site
					{
						OFFSET 0.000000 3.130435 0.000000 
					}
				}
			}
			JOINT lCollar
			{
				OFFSET 3.470700 6.669187 -0.816635 
				CHANNELS 3 Yrotation Zrotation Xrotation
				JOINT lShldr
				{
					OFFSET 3.198488 0.000000 0.000000 
					CHANNELS 3 Zrotation Yrotation Xrotation
					JOINT lForeArm
					{
						OFFSET 10.139888 0.000000 0.000000 
						CHANNELS 3 Yrotation Zrotation Xrotation
						JOINT lHand
						{
							OFFSET 8.370511 0.000000 0.000000 
							CHANNELS 3 Zrotation Yrotation Xrotation
							End Site
							{
								OFFSET 4.083176 0.000000 0.000000 
							}
						}
					}
				}
			}
			JOINT rCollar
			{
				OFFSET -3.470700 6.669187 -0.816635 
				CHANNELS 3 Yrotation Zrotation Xrotation
				JOINT rShldr
				{
					OFFSET -3.198488 0.000000 0.000000 
					CHANNELS 3 Zrotation Yrotation Xrotation
					JOINT rForeArm
					{
						OFFSET -10.139888 0.000000 0.000000 
						CHANNELS 3 Yrotation Zrotation Xrotation
						JOINT rHand
						{
							OFFSET -8.370511 0.000000 0.000000 
							CHANNELS 3 Zrotation Yrotation Xrotation
							End Site
							{
								OFFSET -4.083176 0.000000 0.000000 
							}
						}
					}
				}
			}
		}
	}
	JOINT lThigh
	{
		OFFSET 5.308129 -1.633274 1.361059 
		CHANNELS 3 Xrotation Zrotation Yrotation
		JOINT lShin
		{
			OFFSET -2.041588 -20.007561 0.000000 
			CHANNELS 3 Xrotation Zrotation Yrotation
			JOINT lFoot
			{
				OFFSET 0.000000 -19.190928 -1.224953 
				CHANNELS 3 Xrotation Yrotation Zrotation
				End Site
				{
					OFFSET 0.000000 -2.449906 4.627600 
				}
			}
		}
	}
	JOINT rThigh
	{
		OFFSET -5.308129 -1.633274 1.361059 
		CHANNELS 3 Xrotation Zrotation Yrotation
		JOINT rShin
		{
			OFFSET 2.041588 -20.007561 0.000000 
			CHANNELS 3 Xrotation Zrotation Yrotation
			JOINT rFoot
			{
				OFFSET 0.000000 -19.190928 -1.224953 
				CHANNELS 3 Xrotation Yrotation Zrotation
				End Site
				{
					OFFSET 0.000000 -2.449906 4.627600 
				}
			}
		}
	}
}
MOTION
Frames: 18
Frame Time: 0.033333
-19.847614 40.061043 -90.446007 -5.264283 -13.557984 123.444275 35.282623 4.497806 -9.027827 -20.839844 0.000000 0.000000 -5.188384 12.449563 -10.905618 -2.520832 -1.255077 0.218355 -4.754609 -0.109182 -0.002653 -65.336121 -28.604498 14.473528 -96.325516 -29.362812 -1.388406 15.045259 11.116130 3.112042 4.754609 0.109182 -0.002672 79.998093 -9.316378 -4.572630 111.198677 13.265684 0.038251 7.372581 -24.798990 4.949361 -3.368994 21.744827 6.379393 34.643147 1.042964 -0.397587 -26.976799 16.848246 -23.014870 -63.672695 -19.734209 2.302202 54.954845 -1.298374 4.477940 -10.544851 -2.962465 11.110468 
-19.504917 39.463501 -90.510475 -3.738532 -12.318285 118.365303 33.534405 5.112423 -11.448676 -20.839844 0.000000 0.000000 -0.319549 11.394318 -1.427643 -2.520832 -1.255077 0.218355 -4.754609 -0.109182 -0.002653 -60.606251 -43.585655 10.217093 -104.583916 -20.371607 -3.016349 15.223925 14.374003 4.316385 4.754609 0.109182 -0.002672 77.293716 -2.310578 -0.967349 114.483200 14.321217 1.881356 1.358405 -21.097218 11.192005 4.705433 20.017010 7.287049 29.167698 0.113735 2.449064 -29.106968 21.066526 -23.729132 -61.026970 -16.062815 3.601122 65.020599 -4.656920 0.177009 -16.299963 -10.732144 9.904151 
-18.971361 38.533913 -90.520119 -2.344101 -10.518731 114.822624 32.414936 5.740734 -13.641518 -20.839844 0.000000 0.000000 3.234808 10.261425 6.458665 -2.520832 -1.255077 0.218355 -4.754609 -0.109182 -0.002653 -49.946579 -57.803978 -0.054016 -102.772064 -11.187258 -1.349240 16.179037 14.471867 3.215794 4.754609 0.109182 -0.002672 74.464447 5.913208 1.510003 114.877892 14.218747 2.223873 -3.790984 -20.204443 12.784740 10.291467 19.794434 9.169780 28.440411 -0.642242 3.623857 -30.100008 22.193933 -26.298923 -55.646214 -13.104138 4.652825 71.706451 -7.499373 -3.354213 -21.505388 -16.933361 11.403910 
-18.389557 37.855656 -90.447517 -1.522496 -8.961730 111.915535 32.066029 6.376709 -14.683991 -20.839844 0.000000 0.000000 5.011974 9.043900 12.488829 -2.520832 -1.255077 0.218355 -4.754609 -0.109182 -0.002653 -22.696842 -67.278587 -24.563488 -95.689629 -4.103602 -3.522988 19.787163 13.752588 -2.531883 4.754609 0.109182 -0.002672 70.841125 13.502164 2.692875 114.330673 13.999123 -0.798640 -6.410783 -21.839100 8.382626 10.925389 20.398510 9.933446 34.883408 -0.150250 3.842480 -25.627890 22.190737 -29.540062 -51.583035 -10.614341 5.358747 74.074173 -8.876216 -4.287926 -25.264004 -19.057882 13.204260 
-17.748852 37.847530 -90.277458 -1.312315 -8.220530 108.927368 32.691696 6.887245 -14.139558 -20.839844 0.000000 0.000000 5.298208 7.712474 16.787380 -2.520832 -1.255077 0.218355 -4.754609 -0.109182 -0.002653 10.515862 -66.142899 -54.134209 -89.333611 1.136942 -8.936222 21.765165 13.591238 -10.699855 4.754609 0.109182 -0.002672 66.668480 20.034622 2.922758 112.511803 14.107974 -4.815829 -7.968728 -24.382868 2.080867 4.743798 19.876654 6.608853 48.133408 3.049298 4.606888 -10.336525 21.661135 -31.752150 -50.205231 -8.739538 5.562305 73.697807 -8.915528 -3.102416 -26.279072 -17.901772 14.634288 
-16.959406 38.439495 -90.062202 -1.293718 -8.562302 105.611877 34.369564 6.816153 -12.154448 -20.839844 0.000000 0.000000 4.931038 6.322472 19.491228 -2.520832 -1.255077 0.218355 -4.754609 -0.109182 -0.002653 21.911100 -59.035088 -62.637356 -88.173332 4.216441 -12.227743 21.974545 13.829476 -15.221877 4.754609 0.109182 -0.002672 61.492550 25.602470 2.370610 109.323196 14.835797 -7.652610 -10.192732 -26.581512 -2.448625 -6.794314 18.166626 2.062471 64.112228 6.839619 3.901169 11.158726 14.254338 -32.184746 -49.715748 -8.212723 4.889120 71.589729 -7.587327 -1.339766 -27.622805 -15.054566 13.024373 
-16.059294 39.424911 -89.886543 -0.971968 -10.057176 101.711815 36.749603 5.769670 -9.179981 -20.839844 0.000000 0.000000 4.702203 4.899112 20.839657 -2.520832 -1.255077 0.218355 -4.754609 -0.109182 -0.002653 19.756260 -50.584583 -58.215260 -91.105759 4.989174 -11.765509 22.645105 14.462577 -14.691940 4.754609 0.109182 -0.002672 53.362881 30.027714 0.239852 106.454971 16.270815 -9.894217 -13.010458 -28.237467 -5.508019 -22.062866 16.235050 -1.167585 80.013390 8.740989 0.840272 20.810602 3.865212 -31.337639 -49.277580 -9.393636 3.566756 68.246574 -5.458639 0.801478 -29.989561 -11.414759 11.176332 
-15.193204 40.579891 -89.819023 0.080074 -12.666003 96.758072 39.192715 3.584946 -5.865938 -20.839844 0.000000 0.000000 4.794115 3.481078 21.256950 -2.520832 -1.255077 0.218355 -4.754609 -0.109182 -0.002653 14.853261 -40.076653 -50.570393 -93.445992 4.075642 -10.872404 22.595196 15.344035 -13.482564 4.754609 0.109182 -0.002672 41.025051 32.528996 -4.454593 106.095840 17.933184 -12.312667 -15.477294 -29.685522 -7.784352 -40.929024 14.567603 -2.930865 94.758682 8.484212 -2.003735 16.809732 -1.989223 -28.564728 -49.522846 -11.053164 2.427749 64.099785 -3.670918 2.718801 -31.911949 -8.110143 9.879303 
-14.342849 41.760754 -89.885017 2.388189 -16.060980 90.519356 41.259514 0.288558 -3.228840 -20.839844 0.000000 0.000000 4.721052 2.169124 21.311241 -2.520832 -1.255077 0.218355 -4.754609 -0.109182 -0.002653 10.685144 -27.222198 -42.716747 -93.390007 1.939366 -11.448384 20.298616 15.929568 -14.441116 4.754609 0.109182 -0.002672 26.501596 31.543360 -11.148993 109.171341 18.413229 -13.498240 -16.722549 -30.955875 -7.311455 -61.899223 12.938320 -3.894864 105.441772 7.495638 -3.114959 8.944453 -3.222694 -27.610298 -50.863792 -12.372147 2.208247 59.586651 -2.929375 3.874988 -33.022038 -6.290051 8.913538 
-13.464550 42.794907 -90.038841 6.372674 -19.497374 83.303238 42.955799 -3.820670 -2.204406 -20.839844 0.000000 0.000000 3.782125 1.095454 21.492565 -2.520832 -1.255077 0.218355 -4.754609 -0.109182 -0.002653 6.739262 -13.482759 -34.711235 -91.500694 -1.489492 -12.341413 16.718052 15.773239 -16.191013 4.754609 0.109182 -0.002672 14.036476 26.179081 -17.816782 114.307388 16.133873 -11.456900 -15.270905 -31.750690 -3.325383 -82.894630 11.805834 -4.510057 109.933746 6.490308 -3.956459 6.183443 -3.919073 -27.351971 -53.095837 -14.402188 2.332910 55.084129 -2.654132 4.620681 -33.347717 -5.655466 8.846688 
-12.503504 43.424931 -90.238365 11.773856 -22.091730 75.770325 44.513512 -8.158875 -3.066185 -20.839844 0.000000 0.000000 1.645892 0.346583 22.210909 -2.520832 -1.255077 0.218355 -4.754609 -0.109182 -0.002653 1.985053 -1.178046 -26.749023 -87.061646 -6.214483 -12.361095 13.250042 14.456837 -17.480576 4.754609 0.109182 -0.002672 6.645972 17.692860 -23.194115 118.855507 10.804961 -6.352563 -9.676681 -31.495632 0.830095 -100.801208 11.503199 -5.154947 108.288147 5.650061 -6.240819 6.907303 -6.759850 -25.937164 -56.392315 -17.811695 2.281806 52.274788 -2.138599 4.618679 -33.564583 -5.573411 8.656079 
-11.320604 43.437122 -90.477486 17.411480 -23.257442 68.663437 46.027225 -11.983792 -5.220595 -20.839844 0.000000 0.000000 -1.425333 -0.058413 23.898989 -2.520832 -1.255077 0.218355 -4.754609 -0.109182 -0.002653 -4.230216 8.451132 -19.567013 -79.123230 -11.404720 -11.335872 9.895235 12.260478 -19.365976 4.754609 0.109182 -0.002672 4.632553 9.109371 -27.397369 121.280121 3.953731 -0.831069 -0.937236 -30.833820 1.540907 -112.339478 12.118695 -6.220908 102.620850 5.181757 -9.053183 3.807997 -9.415102 -26.531502 -60.549961 -21.492445 2.597111 52.675777 -2.099614 3.368122 -34.135960 -6.898784 7.246344 
-9.854418 42.770538 -90.758736 21.586630 -22.874313 62.582729 47.254536 -14.678973 -7.372681 -20.839844 0.000000 0.000000 -4.694033 -0.220233 26.817787 -2.520832 -1.255077 0.218355 -4.754609 -0.109182 -0.002653 -12.673479 15.704049 -14.238390 -69.991890 -15.009028 -9.820965 6.450635 10.409962 -22.342806 4.754609 0.109182 -0.002672 6.144427 2.661223 -30.317318 121.374649 -1.944782 2.512062 7.287419 -31.565041 -1.005783 -116.049095 13.798578 -7.601604 95.390907 5.125723 -10.177211 -3.455686 -8.416911 -28.830187 -64.066597 -24.158440 3.760591 55.194035 -3.222625 1.666491 -33.772934 -10.107121 7.561066 
-8.109018 41.421131 -91.075020 23.002510 -21.192698 57.835541 47.895466 -15.869420 -8.146298 -20.839844 0.000000 0.000000 -7.290131 -0.360027 30.867449 -2.520832 -1.255077 0.218355 -4.754609 -0.109182 -0.002653 -23.036961 21.296318 -11.022538 -63.413517 -16.862299 -9.015215 5.371155 9.266674 -25.521824 4.754609 0.109182 -0.002672 9.289485 -1.791739 -31.151503 119.111137 -5.097301 3.272253 10.780333 -33.464890 -3.458567 -112.290413 16.835964 -8.654671 87.699715 4.666837 -9.568066 -10.249063 -4.860154 -27.677454 -65.645287 -25.417446 5.193143 58.834183 -5.156047 0.858776 -31.695158 -13.166558 11.255412 
-6.065589 39.520355 -91.360329 21.394962 -18.776339 54.540470 47.832386 -15.270631 -6.946584 -20.839844 0.000000 0.000000 -8.595858 -0.765976 35.463440 -2.520832 -1.255077 0.218355 -4.754609 -0.109182 -0.002653 -36.980320 25.683596 -11.352434 -61.641659 -15.693577 -9.409078 6.646321 8.739497 -26.009108 4.754609 0.109182 -0.002672 13.458200 -5.712303 -29.584692 114.348145 -5.142447 3.030475 8.086575 -33.416946 -2.193920 -102.114105 20.556038 -8.608657 78.472702 3.936437 -8.063231 -14.206396 -1.256312 -23.558643 -64.860756 -25.800255 6.088086 63.342499 -7.108508 1.242185 -29.289856 -14.240802 16.703711 
-3.738909 37.434273 -91.477608 17.775623 -16.383993 52.887218 47.167717 -12.967636 -4.314430 -20.839844 0.000000 0.000000 -8.418660 -1.312906 39.436722 -2.520832 -1.255077 0.218355 -4.754609 -0.109182 -0.002653 -53.124882 27.922216 -14.317989 -63.055225 -12.386034 -10.781526 8.803542 8.406627 -24.710424 4.754609 0.109182 -0.002672 18.786695 -9.758107 -26.779953 107.017723 -3.338146 2.720847 2.929713 -30.941969 0.980722 -88.362106 23.065369 -7.921505 67.285072 4.261961 -6.371367 -13.554456 2.422562 -21.505671 -61.814262 -26.317726 6.063169 68.330894 -8.513625 1.996610 -29.019743 -13.881528 21.121519 
-1.316759 35.696480 -91.365913 13.679480 -14.392918 53.304832 46.209705 -9.886161 -1.759653 -20.839844 0.000000 0.000000 -6.966739 -1.417649 41.361698 -2.520832 -1.255077 0.218355 -4.754609 -0.109182 -0.002653 -65.703056 26.663435 -15.719429 -61.830921 -10.007292 -12.181319 9.865602 7.710486 -25.301405 4.754609 0.109182 -0.002672 25.941216 -13.897938 -24.510786 97.650566 -1.842250 1.087978 -0.534921 -29.423246 0.705648 -76.344826 22.763405 -8.206679 58.275707 6.625915 -5.411777 -8.199601 6.411925 -23.903645 -56.384216 -27.587107 5.210206 72.320694 -9.335346 2.397132 -31.231077 -13.897745 23.738596 
0.920566 34.865910 -91.180626 10.188844 -12.588087 55.978127 45.268726 -7.370252 -0.637635 -20.839844 0.000000 0.000000 -4.524253 -0.625527 40.520695 -2.520832 -1.255077 0.218355 -4.754609 -0.109182 -0.002653 -69.332130 22.174669 -12.334397 -54.585190 -11.219145 -11.988261 9.254642 6.578350 -28.815786 4.754609 0.109182 -0.002672 35.126343 -17.731277 -24.021387 87.188408 -2.212829 -4.861900 -1.010285 -31.371233 -7.370251 -70.022270 21.102072 -8.758343 56.077118 8.653700 -5.974212 -2.448798 6.843639 -28.384661 -48.182922 -29.072006 3.576103 73.356598 -9.882310 2.039220 -34.392555 -15.492404 24.853889 
